<svg
  xmlns="http://www.w3.org/2000/svg"
  viewBox="0 0 64 64"
  width="32"
  height="32"
>
  <!-- Browser window -->
  <rect
    x="8"
    y="12"
    width="48"
    height="36"
    rx="3"
    fill="#E0E0E0"
    stroke="#BDBDBD"
    stroke-width="2"
  />
  <circle cx="14" cy="16" r="2" fill="#FF5252" />
  <circle cx="20" cy="16" r="2" fill="#FFEB3B" />
  <circle cx="26" cy="16" r="2" fill="#4CAF50" />

  <!-- Chat bubble -->
  <path
    d="M20 22 h24 a4 4 0 0 1 4 4 v8 a4 4 0 0 1 -4 4 h-12 l-8 6 v-6 h-4 a4 4 0 0 1 -4 -4 v-8 a4 4 0 0 1 4 -4 z"
    fill="#FFFFFF"
    stroke="#BDBDBD"
    stroke-width="1"
  />

  <!-- Medium sparkle -->
  <path
    d="M33 24 
      c0 3.2 -1.6 6.4 -4.8 6.4
      c3.2 0 4.8 3.2 4.8 6.4
      c0 -3.2 1.6 -6.4 4.8 -6.4
      c-3.2 0 -4.8 -3.2 -4.8 -6.4"
    fill="#FFE54D"
  />

  <!-- Small sparkle -->
  <path
    d="M28 23 
      c0 1.6 -0.8 3.2 -2.4 3.2
      c1.6 0 2.4 1.6 2.4 3.2
      c0 -1.6 0.8 -3.2 2.4 -3.2
      c-1.6 0 -2.4 -1.6 -2.4 -3.2"
    fill="#FFE54D"
  />
  <path
    d="M29 32
      c0 1.6 -0.8 3.2 -2.4 3.2
      c1.6 0 2.4 1.6 2.4 3.2
      c0 -1.6 0.8 -3.2 2.4 -3.2
      c-1.6 0 -2.4 -1.6 -2.4 -3.2"
    fill="#FFE54D"
  />
</svg>